PathFileType	4	(X/Y/Z)	C:/Users/beibeiliu/ov580/test_trc\sequence.18_training_dense_right.trc
DataRate	CameraRate	NumFrames	NumMarkers	Units	OrigDataRate	OrigDataStartFrame	OrigNumFrames
120	120	14	19	mm	120	55	82
Frame#	Time	ThumbCMC			ThumbMCP			ThumbIP			ThumbTip			IndexMCP			IndexPIP			IndexTip			MiddleMCP			MiddlePIP			MiddleTip			RingMCP			RingPIP			RingTip			PinkyMCP			PinkyPIP			PinkyTip			BackHand1			BackHand2			BackHand3	
		X0	Y0	Z0	X1	Y1	Z1	X2	Y2	Z2	X3	Y3	Z3	X4	Y4	Z4	X5	Y5	Z5	X6	Y6	Z6	X7	Y7	Z7	X8	Y8	Z8	X9	Y9	Z9	X10	Y10	Z10	X11	Y11	Z11	X12	Y12	Z12	X13	Y13	Z13	X14	Y14	Z14	X15	Y15	Z15	X16	Y16	Z16	X17	Y17	Z17	X18	Y18	Z18	
54	0.45	122.82	79.136	13.061	122.95	84.6672	-17.4319	130.8	80.9263	-42.1095	132.828	73.1952	-60.7177	168.668	64.6666	-34.1582	160.886	69.3186	-59.793	141.905	72.4012	-73.091	167.666	48.4787	-37.7735	156.526	53.2822	-66.2485	132.965	60.858	-75.2692	159.582	31.7017	-36.1627	151.171	34.2678	-59.6714	131.004	48.4649	-68.2153	148.343	16.4611	-28.4892	146.37	21.8267	-50.1214	133.005	35.5295	-67.2455	144.409	31.7695	12.8237	126.995	32.3517	35.2167	146.7	57.2936	25.5694	
55	0.458333	114.76	86.1161	12.5248	113.825	93.4802	-18.928	115.796	94.0735	-40.2371	123.089	84.5557	-62.377	158.39	90.7248	-34.6907	149.573	90.2664	-59.4319	129.857	89.969	-73.1755	161.98	71.7234	-40.2671	150.295	75.4864	-66.6412	119.493	74.0533	-76.308	158.828	50.2166	-37.8471	147.199	61.6339	-63.4035	122.572	61.8029	-71.2155	152.068	35.8019	-30.8142	147.656	39.3581	-55.5749	134.39	53.3826	-68.1179	149.086	45.4072	9.66646	130.986	42.2297	32.0153	141.758	73.5953	23.738	
56	0.466667	103.794	92.97	13.1502	96.634	100.879	-18.3154	101.653	101.625	-40.3273	106.24	96.3647	-62.1275	141.835	107.237	-36.6985	131.436	110.407	-57.643	107.921	103.407	-73.1193	149.158	92.182	-41.9225	137.151	92.3486	-67.014	107.746	86.7848	-76.5692	150.025	73.7502	-40.501	137.094	74.6156	-66.7256	112.578	72.9953	-71.8026	148.428	56.3273	-35.852	141.685	56.9338	-58.6236	121.33	63.0124	-69.9444	144.365	58.9697	7.23283	132.478	53.313	29.2784	134.194	82.4288	21.2358	
57	0.475	90.277	96.7591	14.2673	81.5043	105.566	-18.8102	83.2541	107.713	-43.6327	88.6865	100.978	-59.4066	121.169	121.942	-35.5114	109.011	119.217	-60.102	86.1304	106.634	-70.5594	132.311	104.813	-45.2529	115.139	105.861	-70.5506	91.0888	92.5308	-77.1333	137.564	85.7611	-44.8026	122.159	88.637	-67.5586	94.8555	85.607	-70.7459	139.96	68.5976	-43.4913	128.278	74.859	-59.8791	103.655	75.978	-70.9967	136.952	75.3889	4.93554	130.075	64.1173	23.6447	124.449	91.8742	19.4227	
58	0.483333	77.3188	100.742	12.7033	61.3621	104.63	-15.0348	60.2751	107.848	-38.719	70.3913	100.692	-60.6944	97.6259	127.418	-37.6439	79.4725	125.143	-60.2324	60.7805	109.158	-67.0559	110.936	115.308	-46.0771	92.686	109.703	-72.9979	65.3448	95.8941	-75.6523	117.002	101.181	-47.4444	99.9534	94.3506	-69.8978	77.2023	87.7537	-70.776	124.316	80.4726	-45.6915	109.648	82.3275	-63.555	87.1268	79.8057	-71.5469	125.152	83.4249	0.42478	120.536	72.0473	24.6537	109.942	100.665	19.0467	
59	0.491667	60.207	100.749	13.7728	39.0681	102.643	-13.5336	44.5708	101.786	-38.4757	48.302	96.1972	-58.18	66.0073	132.562	-38.4959	52.7601	121.911	-59.2514	38.153	98.797	-65.0452	82.4637	121.977	-51.9488	65.2132	112.606	-73.2825	46.3288	91.9433	-75.3629	95.6986	107.19	-52.6285	77.2369	98.1369	-71.7118	57.7138	82.5193	-69.6014	106.464	89.8543	-47.1935	90.9557	86.3156	-64.9866	68.7632	80.9149	-66.6504	108.149	99.567	-6.27087	109.236	85.874	21.645	92.8723	109.548	16.9965	
60	0.5	42.8893	98.7899	17.4287	28.5093	94.8746	-10.9726	24.8187	93.6759	-35.4044	31.2416	87.4465	-59.032	43.472	127.245	-43.395	26.3805	110.601	-59.3634	15.9926	85.3761	-58.9201	59.5323	122.037	-49.7592	41.5844	109.231	-70.4028	28.8922	76.1529	-70.1286	74.1729	107.802	-57.2058	57.8005	94.0057	-69.8052	41.5539	73.1871	-64.1323	89.8091	92.7236	-49.4033	68.3853	87.3289	-63.2756	54.1812	72.2163	-64.5967	94.3969	106.555	-7.67492	97.9808	96.5625	18.1524	75.3621	117.241	12.079	
61	0.508333	32.0787	95.1745	15.401	12.5252	82.9166	-7.49743	11.8929	80.1056	-34.2369	23.3728	75.8311	-52.8199	24.826	117.882	-39.5025	14.3731	95.4593	-58.8234	5.40248	72.3664	-53.0408	44.6381	111.071	-51.3518	24.7317	93.5844	-70.1566	16.3575	65.2787	-64.429	55.7085	102.879	-54.2074	42.8013	86.5831	-67.6435	32.1245	62.3694	-59.2153	71.4668	92.3154	-50.949	60.0375	79.3365	-62.1159	38.7367	60.9156	-55.3936	78.5012	107.475	-10.6251	85.4035	101.578	15.7293	56.7462	116.871	12.6024	
62	0.516667	23.832	87.0907	18.6316	8.783	72.5858	-6.2761	8.01348	69.0852	-34.3676	16.6671	63.4859	-52.8759	16.2961	104.251	-39.921	7.1541	83.8965	-55.6506	-0.168272	55.3502	-47.262	30.6246	100.109	-55.689	16.5684	79.9686	-67.7979	13.8279	47.8842	-58.7152	49.4893	92.57	-53.3418	30.9476	71.5503	-64.7179	25.9666	47.1963	-50.2241	67.0187	84.0051	-49.4057	49.1842	68.3722	-59.6572	33.9785	51.7989	-47.9038	68.4879	103.275	-7.63466	79.0297	99.234	17.1913	47.7761	109.712	9.92655	
63	0.525	18.9732	77.9627	18.9095	5.45201	63.2925	-5.61969	2.82672	58.2121	-30.1579	13.8452	52.2597	-53.3325	10.9688	93.5265	-39.2557	-4.2635	71.1897	-53.0757	0.152984	43.7687	-44.9524	26.4438	90.2269	-51.3229	13.9407	70.9281	-65.784	11.6261	35.8662	-56.0505	45.0027	83.6328	-51.4269	31.3427	62.1582	-63.5159	24.7844	40.5599	-50.4624	61.8714	75.8812	-47.5096	46.1818	63.0763	-57.3442	32.6646	42.2639	-49.1815	63.1264	98.0326	-9.56455	72.5385	92.1337	19.0866	40.4217	101.838	12.0642	
64	0.533333	20.1227	70.7917	25.0102	1.30707	56.8178	-4.60913	-1.24793	49.5498	-24.7012	8.63208	45.8103	-49.3108	4.71217	90.1798	-35.5608	-6.55974	65.0655	-52.8819	-4.04153	38.8923	-48.1052	20.3213	86.1559	-48.7862	12.9754	64.2565	-65.904	5.96387	34.933	-59.2521	41.802	79.6641	-50.4398	28.7169	55.4471	-65.6522	20.4961	37.595	-55.1288	58.1985	71.9087	-46.1856	45.1593	56.0632	-58.8968	33.3934	36.4221	-54.848	61.5069	91.5372	-9.03294	70.6801	88.3006	19.1005	40.9477	95.6816	14.4553	
65	0.541667	17.3378	69.683	23.8468	4.00125	54.5716	-0.44408	-3.91294	47.9396	-21.2759	-0.352445	40.8457	-42.6915	6.17747	87.5526	-36.5738	-0.973601	65.9313	-57.021	-5.20932	42.5131	-58.4626	24.9509	84.0886	-53.8828	14.7751	66.3826	-69.0263	6.11455	38.6117	-69.5022	40.4644	78.6877	-51.7255	29.4514	61.0299	-67.2915	18.9782	37.1993	-64.5234	59.7934	69.7406	-47.0393	50.2231	53.4365	-61.7409	37.0216	39.4179	-63.2462	61.6216	89.2739	-5.30934	67.7304	85.9902	21.5881	40.9155	96.5667	11.6287	
66	0.55	16.0191	68.2401	24.3708	2.65806	52.1541	3.83715	-8.51258	45.6571	-19.4954	-7.62205	38.1896	-38.1985	7.84255	81.7719	-41.0099	-3.07369	68.7497	-58.0572	-8.0287	41.1271	-68.4969	27.5956	82.4991	-50.4098	18.3124	67.7677	-73.0172	10.898	39.2373	-83.9098	45.8361	75.4478	-54.1977	36.2942	59.2188	-72.8802	26.0898	41.3272	-77.854	65.6125	67.1855	-44.9375	59.9363	57.1753	-59.8446	50.6989	37.9549	-72.996	62.7026	87.6839	-8.70674	67.996	84.664	18.8584	39.9516	91.8499	13.719	
67	0.558333	15.5233	63.0936	27.067	1.94277	47.0288	6.88912	-6.5433	40.1319	-15.0645	-14.4561	30.4726	-30.2086	10.4776	73.0415	-40.8478	-0.325509	60.1788	-60.0877	-3.4284	40.09	-75.5075	26.878	72.4982	-52.839	24.3993	62.1426	-73.2697	18.5925	42.7623	-91.7837	51.9211	67.3955	-47.5045	44.2227	56.7742	-69.3555	36.7992	40.1405	-84.1969	72.3528	58.1143	-40.439	65.3155	48.9998	-61.246	64.2682	37.859	-74.6512	61.9443	79.7996	-3.52581	70.49	80.8893	22.5967	36.524	86.5981	11.9735	
